<svg viewBox="0 0 96 96" xmlns="http://www.w3.org/2000/svg" xmlns:xlink="http://www.w3.org/1999/xlink" id="Icons_Croissant" overflow="hidden"><path d="M36.628 60.792 30.468 25.2C30.424 24.944 30.3907 24.689 30.368 24.435 24.6148 26.7145 19.3558 30.0835 14.88 34.357 13.1816 35.9796 12.8382 38.5642 14.054 40.574L26.207 60.653C27.429 62.674 29.9009 63.561 32.129 62.778 33.6586 62.2447 35.2142 61.7895 36.79 61.414 36.736 61.206 36.665 61.006 36.628 60.792Z"/><path d="M81.131 34.357C76.6537 30.0842 71.3934 26.7162 65.639 24.438 65.6203 24.692 65.5887 24.9467 65.544 25.202L59.384 60.792C59.347 61.006 59.275 61.206 59.222 61.414 60.7977 61.7896 62.3534 62.2449 63.883 62.778 66.1111 63.561 68.583 62.674 69.805 60.653L81.958 40.574C83.174 38.5641 82.8301 35.9792 81.131 34.357Z"/><path d="M22.784 62.723 11.748 44.489C9.19676 49.8473 7.87587 55.7083 7.882 61.643 7.882 67.943 9.436 71.901 11.517 75.143 12.7087 77.0104 15.1885 77.5581 17.0559 76.3664 17.7227 75.9409 18.2488 75.3277 18.568 74.604 20.0626 71.0602 22.1303 67.7864 24.688 64.914 23.9379 64.2926 23.2947 63.5525 22.784 62.723Z"/><path d="M84.235 44.536 73.227 62.724C72.7128 63.5618 72.0633 64.3085 71.305 64.934 73.8447 67.8028 75.8979 71.068 77.383 74.6 78.2755 76.6281 80.6431 77.5486 82.6712 76.6561 83.3957 76.3372 84.0098 75.8111 84.436 75.144 86.516 71.899 88.068 67.944 88.068 61.644 88.0748 55.7276 86.7656 49.8839 84.235 44.536Z"/><path d="M61.6 24.521C61.9526 22.4666 60.674 20.4841 58.657 19.958 51.6736 18.1222 44.3344 18.1222 37.351 19.958 35.334 20.4841 34.0554 22.4666 34.408 24.521L40.569 60.11C40.8688 61.8915 42.3301 63.2482 44.129 63.415 45.405 63.523 46.697 63.581 48.006 63.581 49.315 63.581 50.606 63.523 51.883 63.415 53.6803 63.2487 55.1412 61.8946 55.443 60.115Z"/></svg>