<svg viewBox="0 0 96 96" xmlns="http://www.w3.org/2000/svg" xmlns:xlink="http://www.w3.org/1999/xlink" id="Icons_ChefHat_M" overflow="hidden"><g id="Icons"><path d="M67.793 22.47C65.6374 22.4717 63.5101 22.9606 61.57 23.9 59.7109 17.9872 54.2181 13.9741 48.02 14 47.586 14 47.145 14.021 46.71 14.06 41.0186 14.581 36.1909 18.4561 34.451 23.9 27.3835 20.4615 18.8667 23.4035 15.4283 30.471 11.9898 37.5385 14.9317 46.0553 21.9992 49.4937 23.049 50.0044 24.1576 50.3841 25.3 50.624L25.3 82 70.712 82 70.712 50.622C78.4015 49.001 83.321 41.4535 81.7 33.764 80.3136 27.1872 74.5143 22.4776 67.793 22.47ZM68.712 80 27.3 80 27.3 72 68.712 72ZM68.712 48.944C67.878 49.0031 67.0416 49.0191 66.206 48.992 65.6574 48.9793 65.1981 49.405 65.169 49.953 65.1482 50.5047 65.5783 50.9689 66.13 50.99 66.224 50.99 66.601 51.007 67.102 51.007 67.574 51.007 68.154 50.992 68.712 50.949L68.712 70 27.3 70 27.3 50.949C27.858 50.991 28.437 51.007 28.909 51.007 29.409 51.007 29.787 50.994 29.881 50.99 30.4333 50.969 30.864 50.5043 30.843 49.952 30.822 49.3997 30.3573 48.969 29.805 48.99 28.9714 49.0173 28.137 49.0017 27.305 48.943 20.5565 48.4337 15.4987 42.55 16.008 35.8015 16.5173 29.053 22.401 23.9952 29.1495 24.5045 31.5875 24.6885 33.9148 25.5977 35.832 27.115 36.3699 21.2434 41.0205 16.5915 46.892 16.052 47.271 16.017 47.648 16 48.02 16 54.3375 16.0078 59.6096 20.8257 60.185 27.117 62.3469 25.4021 65.0255 24.4692 67.785 24.47L67.796 24.47C74.5648 24.494 80.0325 30.0006 80.0085 36.7693 79.9859 43.1478 75.0748 48.4426 68.716 48.944Z"/></g></svg>