<svg viewBox="0 0 96 96" xmlns="http://www.w3.org/2000/svg" xmlns:xlink="http://www.w3.org/1999/xlink" id="Icons_ChefHat" overflow="hidden"><path d="M82.006 36C82.012 28.8264 76.2015 23.0061 69.0279 23.0001 66.0937 22.9976 63.245 23.9887 60.946 25.812 60.2924 18.6654 53.9692 13.4018 46.8226 14.0554 40.5813 14.6262 35.6368 19.5707 35.066 25.812 29.4421 21.3559 21.2707 22.3025 16.8146 27.9264 12.3585 33.5502 13.3051 41.7217 18.929 46.1778 20.959 47.7863 23.4235 48.7513 26.006 48.949L26.006 70 70.006 70 70.006 48.949C76.7747 48.4307 82.0033 42.7886 82.006 36Z"/><rect x="26.006" y="74" width="44" height="8"/></svg>