<svg viewBox="0 0 96 96" xmlns="http://www.w3.org/2000/svg" xmlns:xlink="http://www.w3.org/1999/xlink" id="Icons_Whisk" overflow="hidden"><path d="M32.4 56.5 11.1 77.8C9.2 79.8 9.2 82.9 11.2 84.9 13.1 86.8 16.2 86.8 18.2 84.9L39.5 63.6 32.4 56.5Z"/><path d="M80.4 15.6 80.4 15.6 80.4 15.6C73 8.1 61 8.1 53.6 15.6 48.6 20.6 39.8 41.7 35.1 53.5L42.6 61C54.4 56.3 75.5 47.4 80.5 42.5 87.8 35 87.9 23 80.4 15.6ZM56.4 18.4C59.2 15.6 63 14 67 14 68 14 68.9 14.1 69.9 14.3 65.9 15.8 62.2 18.1 59.2 21.2 55.9 24.5 49.6 33.7 43.8 42.5 48.4 32 53.4 21.4 56.4 18.4ZM62.1 24C66.6 19.5 71.4 17.4 74.7 17.4 75 17.4 75.4 17.4 75.7 17.5L45 48.2C51.1 38.7 58.6 27.5 62.1 24ZM78.5 20.3C79.1 23.5 77 29 72 34 68.5 37.4 57.3 44.9 47.8 51L78.5 20.3ZM77.6 39.6C74.6 42.6 64 47.6 53.4 52.1 62.2 46.4 71.4 40 74.7 36.7 77.8 33.7 80.2 30.1 81.6 26.1 82.7 31 81.1 36.1 77.6 39.6Z"/></svg>