<svg viewBox="0 0 96 96" xmlns="http://www.w3.org/2000/svg" xmlns:xlink="http://www.w3.org/1999/xlink" id="Icons_PotOfGold" overflow="hidden"><path d="M72.2 74.6C79.5 68.8 84 60.6 84 51.5 84 45 81.6 38.7 77.5 33.6 76.7 32.6 76.2 31.4 76.2 30.1 79.4 28.8 82 26.7 82 23.5 82 18.2 75 16.1 69.7 15 62.2 13.6 54.6 12.9 47 13 45 13 43.1 13 41.3 13.1 39.6 11.2 35.8 12.4 33.1 13.7 30.1 14 27.2 14.4 24.3 15 19 16.1 12 18.2 12 23.5 12 26.8 14.6 28.8 17.9 30.1 17.8 31.4 17.4 32.6 16.6 33.6 12.4 38.7 10 45 10 51.5 10 60.6 14.5 68.8 21.8 74.5L20.2 76.1C18.6 77.7 18.6 80.2 20.2 81.8 21.8 83.4 24.3 83.4 25.9 81.8L25.9 81.8 28.8 78.9C40.3 84.4 53.7 84.4 65.3 78.9L68.2 81.8C69.8 83.4 72.3 83.4 73.9 81.8 75.5 80.2 75.5 77.7 73.9 76.1L72.2 74.6ZM17 23.3C16.8 23.9 16.8 24.5 17 25.1 16.8 24.9 16.6 24.7 16.4 24.5L16.2 24.3C16.1 24.2 16.1 24.1 16.1 24 16 23.8 16 23.7 16 23.5 16 22.8 16.6 22 17.7 21.4L17 23.3ZM77.7 22.6C76.4 22.7 75.1 22.8 73.8 23.1 72.7 23.3 71.7 23.5 70.6 23.9L70.8 23.1C71.3 21.4 70.1 20 68.5 18.8 73.4 19.8 76.8 21.1 77.7 22.6ZM46.3 17.2C50.5 16.6 54.1 17 54.3 18.2 54.5 19.4 51.2 20.8 46.9 21.4 42.6 22 39.1 21.6 38.9 20.4 38.7 19.2 42.1 17.8 46.3 17.2ZM32 16.6C35.7 14.5 39.2 13.6 39.8 14.6 40.4 15.6 37.8 18.1 34.1 20.3 30.4 22.5 26.9 23.3 26.3 22.3 25.7 21.3 28.2 18.7 32 16.6ZM37.2 22.6C36.8 22.9 36.3 23.1 35.9 23.4 32.2 25.5 28.7 26.4 28.1 25.4L27.8 24.9C30.3 24.8 33.5 23.2 35.2 22.2 35.7 21.9 36.3 21.5 37 21.1L37.2 22.6ZM20.2 20.7C20.5 20 22.2 19.9 24.5 20.3 23.9 21.2 23.9 22.4 24.4 23.3L25.2 24.7C22 23.3 19.9 21.6 20.2 20.7ZM33.6 29.3 33.6 29.3C30.1 29 26.6 28.4 23.2 27.6 20.4 26.3 18.7 24.8 19 23.9L19.2 23.3C20.9 25.2 24.2 26.6 26 27.2 27.8 27.8 31.2 28.9 33.8 28.6L33.6 29.3ZM41.9 29.9C39.8 29.8 37.7 29.7 35.7 29.5L36.7 26.7C36.9 26.2 36.9 25.7 36.8 25.2 37 25.1 37.2 25 37.5 24.8 38.1 26.4 40.1 27 42.3 27.2L41.9 29.9ZM39.4 23.7 39.3 23.3C41.7 24.1 45.3 23.8 47.2 23.5 49.1 23.2 52.6 22.5 54.7 21.1L54.8 21.7C55 22.9 51.7 24.3 47.4 24.9 43.1 25.5 39.6 25 39.4 23.9L39.4 23.7ZM59.6 29.5C56.5 29.8 53.2 30 49.6 30 46.5 29.3 44.3 28.2 44.4 27.3L44.4 27.3C45.5 27.3 46.6 27.2 47.7 27 49.1 26.8 50.4 26.5 51.7 26.1L52.4 26.2C56.7 26.7 60 28.1 59.8 29.3 59.8 29.3 59.7 29.4 59.7 29.4L59.6 29.5ZM65.8 28.7C65.3 28.8 63.2 29 62 29.2 62 28.9 61.9 28.5 61.8 28.2 63.1 28.4 64.4 28.6 65.8 28.7L65.8 28.7ZM67.9 25.9C67.6 27 64 26.9 59.9 25.7 58.5 25.3 57.1 24.8 55.8 24.1 56.2 23.8 56.5 23.4 56.7 23 57.9 23.5 59.1 24 60.3 24.3 62.1 24.8 65.6 25.7 68.1 25.2L67.9 25.9ZM60.9 22.3C59.5 21.9 58.2 21.4 57 20.8L56.5 17.8C56.5 17.6 56.4 17.5 56.4 17.3 58.3 17.4 60.3 17.7 62.1 18.3 66.2 19.5 69.3 21.4 68.9 22.5 68.5 23.6 64.9 23.5 60.9 22.3L60.9 22.3ZM68.6 28.2C69.3 27.8 69.7 27.2 70 26.5L70.1 26.3C71.5 25.8 72.9 25.4 74.3 25.2 75.4 25 76.4 24.9 77.5 24.8 76.1 26.1 73.1 27.3 68.6 28.2L68.6 28.2Z"/></svg>