<svg viewBox="0 0 96 96" xmlns="http://www.w3.org/2000/svg" xmlns:xlink="http://www.w3.org/1999/xlink" id="Icons_Baguette_M" overflow="hidden"><g id="Icons"><path d="M31.8887 50.5513C33.2402 49.2027 34.8579 48.1505 36.6387 47.4619 42.2729 45.2969 48.0637 43.5639 53.961 42.2779 54.4405 42.1855 54.7892 41.7691 54.796 41.2809 54.79 40.728 54.337 40.2847 53.7841 40.2907 53.7178 40.2914 53.6518 40.2987 53.5869 40.3125 47.5715 41.6217 41.6647 43.3879 35.918 45.5957 33.8797 46.3838 32.0279 47.5878 30.4805 49.1309 26.7805 52.7977 21.9334 57.8499 18.5981 61.5124 18.5824 61.5297 18.5868 61.5365 18.6081 61.528 19.8113 61.0603 21.1881 60.55 22.6998 60.0228 25.65 56.876 29.0986 53.3165 31.8887 50.5513Z"/><path d="M41.2744 41.2744C43.5352 39.0144 45.7275 36.7856 47.8506 34.6279L50.3477 32.0928C51.7496 30.6631 53.4454 29.555 55.3177 28.8452 60.4896 26.8572 65.7994 25.2487 71.205 24.0323 71.6848 23.9398 72.034 23.5236 72.0417 23.035 72.0365 22.4827 71.5846 22.0392 71.0324 22.0444 70.9654 22.045 70.8986 22.0524 70.833 22.0664 65.3124 23.3048 59.8897 24.9455 54.6084 26.9751 52.467 27.7865 50.5275 29.0533 48.9238 30.688L46.4248 33.2251C44.3057 35.3794 42.1172 37.6035 39.8604 39.8604 39.5049 40.2163 38.8904 40.8516 38.2627 41.5024 37.6453 42.1418 37.0262 42.7819 36.6195 43.1909 36.6136 43.1968 36.6157 43.1987 36.6234 43.1958 38.0011 42.6748 39.4234 42.1731 40.8647 41.6907 41.02 41.5319 41.1632 41.3858 41.2744 41.2744Z"/><path d="M83.5068 12.4932C76.2385 5.2244 64.9445 14.9409 54.8917 24.7177 54.8728 24.7361 54.8761 24.7441 54.9008 24.7348 56.2094 24.2429 57.7616 23.6818 59.4897 23.1018 69.5097 13.7908 77.2097 9.0246 82.0928 13.9072 83.4196 15.1376 84.1698 16.8678 84.1611 18.6772 84.1328 25.7553 73.5957 36.1234 61.3936 48.1283 59.2295 50.2583 56.9941 52.4583 54.7256 54.726 52.4571 56.9937 50.2578 59.2294 48.1279 61.3944 36.1221 73.5952 25.7539 84.1328 18.6768 84.1611L18.6475 84.1611C16.8486 84.161 15.131 83.4116 13.9075 82.0928 11.1292 79.3145 11.1653 75.7344 14.0208 70.8262 15.6393 68.0562 18.169 65.9336 21.178 64.8208 25.9161 63.0433 30.7754 61.6071 35.7185 60.5233 36.197 60.4309 36.5445 60.0148 36.5502 59.5275 36.5446 58.9747 36.092 58.5312 35.5393 58.5367 35.4726 58.5374 35.4063 58.5447 35.3411 58.5586 30.2904 59.6634 25.3255 61.1293 20.4847 62.9448 17.0401 64.2188 14.1444 66.6488 12.292 69.82 8.9541 75.5568 9.0205 80.0339 12.4932 83.5065 14.0932 85.1987 16.3186 86.1586 18.6475 86.1608L18.6846 86.1608C26.5957 86.1291 36.7266 75.8322 49.5537 62.7961 51.68 60.6357 53.875 58.4038 56.14 56.14 58.405 53.8762 60.6361 51.68 62.7973 49.5541 75.833 36.7271 86.13 26.5962 86.1611 18.6851 86.1693 16.3432 85.2086 14.1021 83.5068 12.4932Z"/></g></svg>