<svg viewBox="0 0 96 96" xmlns="http://www.w3.org/2000/svg" xmlns:xlink="http://www.w3.org/1999/xlink" id="Icons_BurgerAndDrink" overflow="hidden"><path d="M50.3 62.2 17.5 62.2C15.6 62.2 14 63.8 14 65.7 14 67.6 15.6 69.2 17.5 69.2L33.7 69.2 38.7 73.9 43.8 69.2 50.3 69.2C52.2 69.2 53.8 67.6 53.8 65.7 53.8 63.8 52.2 62.2 50.3 62.2Z"/><path d="M38.5 79.3 31.6 72.9 13.8 72.9 13.8 77.6C13.8 80.2 15.9 82.3 18.5 82.3L49 82.3C51.6 82.3 53.7 80.2 53.7 77.6L53.7 72.9 45.5 72.9 38.5 79.3Z"/><path d="M33.7 43C22.7 43 13.8 47.2 13.8 58.2L53.6 58.2C53.6 47.3 44.7 43 33.7 43Z"/><path d="M81.6 17.2C82.4 16.4 82.4 15.2 81.6 14.4 80.8 13.6 79.6 13.6 78.8 14.4L68.8 24.7 68.4 28.4 40.8 28.4 40.8 31.4 41.5 39.9C51.8 42 57.7 48.6 57.7 58.4L57.7 77.7C57.7 79.4 57.2 81 56.3 82.4L72.9 82.4 76.9 31.4 76.9 28.4 72.7 28.4 72.9 26.4 81.6 17.2Z"/></svg>