<svg viewBox="0 0 96 96" xmlns="http://www.w3.org/2000/svg" xmlns:xlink="http://www.w3.org/1999/xlink" id="Icons_PotOfGold_M" overflow="hidden"><g id="Icons"><path d="M84 51.52C83.9566 44.9897 81.6495 38.6766 77.472 33.657 76.1289 31.9954 75.7761 29.7427 76.547 27.75 78.667 26.65 80 25.26 80 23.512 80 15.243 50.378 15 47 15 46.056 15 43.058 15.019 39.231 15.227 37.453 13.168 33.374 14.612 30.584 15.976 22.28 17.014 14 19.14 14 23.512 14 25.26 15.333 26.646 17.453 27.75 18.2239 29.7427 17.8711 31.9954 16.528 33.657 12.3505 38.6766 10.0434 44.9897 10 51.52 10 60.62 14.541 68.82 21.793 74.57L20.328 76.035C18.6815 77.6357 18.6443 80.2682 20.2451 81.9147 20.2674 81.9377 20.2901 81.9605 20.313 81.983 21.8933 83.4156 24.3197 83.3563 25.828 81.848L28.756 78.92C40.3044 84.3866 53.6956 84.3866 65.244 78.92L68.172 81.848C69.6803 83.3563 72.1067 83.4156 73.687 81.983 75.3254 80.374 75.3493 77.7414 73.7403 76.1029 73.7178 76.08 73.695 76.0574 73.672 76.035L72.207 74.57C79.459 68.819 84 60.623 84 51.52ZM36.847 21.686C36.847 21.697 36.847 21.707 36.847 21.718L37.072 23.242C36.0269 24.0752 34.9159 24.8223 33.75 25.476 30.019 27.589 26.526 28.476 25.95 27.459L25.644 26.919C28.198 26.798 31.384 25.194 33.054 24.248 34.3867 23.4999 35.6553 22.643 36.847 21.686ZM38.947 21.408C38.776 20.251 42.077 18.808 46.319 18.179 50.561 17.55 54.139 17.979 54.31 19.14 54.481 20.301 51.18 21.74 46.938 22.369 42.696 22.998 39.114 22.565 38.943 21.408ZM62.186 25.39C64.028 25.931 67.495 26.769 70.01 26.306L69.835 26.901C69.501 28.039 65.801 27.951 61.615 26.693L61.597 26.684C60.149 25.6719 58.505 24.9742 56.771 24.636 56.643 24.559 56.503 24.481 56.387 24.404 56.6441 24.0513 56.8175 23.6447 56.894 23.215 58.5696 24.1389 60.345 24.8686 62.186 25.39ZM53.567 24.059C52.5125 23.9256 51.4517 23.8478 50.389 23.826 51.9289 23.475 53.3974 22.8632 54.731 22.017L54.822 22.631C54.889 23.085 54.416 23.583 53.567 24.059ZM53.377 26.169C57.717 26.727 61.093 28.156 60.795 29.33L60.783 29.341C57.634 29.67 54.183 29.889 50.539 29.976 47.449 29.307 45.285 28.22 45.406 27.276 45.555 26.119 49.124 25.622 53.377 26.169ZM45.077 24.704C44.4318 25.0059 43.9045 25.5125 43.577 26.145 41.225 26.123 39.577 25.676 39.46 24.9L39.369 24.286C41.2294 24.7756 43.1644 24.916 45.076 24.7ZM70.83 23.515C70.5 24.637 66.897 24.567 62.783 23.358 60.5665 22.7974 58.4804 21.8107 56.641 20.453L56.4 18.83C56.392 18.776 56.37 18.73 56.36 18.68 57.478 18.074 60.545 18.287 63.976 19.295 68.091 20.5 71.159 22.393 70.83 23.515ZM37.73 16.736C38.306 17.754 35.748 20.292 32.017 22.405 28.286 24.518 24.793 25.405 24.217 24.388 23.641 23.371 26.198 20.833 29.93 18.719 33.662 16.605 37.149 15.718 37.725 16.736ZM34.794 27.319C35.7124 26.7994 36.603 26.2319 37.462 25.619 38.053 27.596 40.588 28.194 43.144 28.264L42.926 29.958C38.639 29.84 34.626 29.539 31.077 29.092 32.3567 28.5904 33.5989 27.9979 34.794 27.319ZM78 23.512C78 24.965 75.731 26.306 71.9 27.389L72.862 24.112C73.518 21.882 71.362 20.144 68.937 18.934 68.899 18.915 68.903 18.907 68.944 18.916 74.539 20.093 78 21.718 78 23.512ZM26 18.728C23.516 20.548 21.046 23.096 22.368 25.428L23.712 27.801C18.915 26.659 16 25.157 16 23.512 16 21.619 19.856 19.917 26 18.728ZM24.413 80.434C23.6604 81.1863 22.4504 81.2175 21.66 80.505 20.8389 79.6804 20.8418 78.3463 21.6664 77.5253 21.6732 77.5185 21.6801 77.5117 21.687 77.505L23.407 75.785C24.528 76.5723 25.6914 77.2974 26.892 77.957ZM72.313 77.502C73.1496 78.3116 73.1715 79.6462 72.3619 80.4828 72.3556 80.4892 72.3493 80.4956 72.343 80.502 71.5528 81.2163 70.3414 81.186 69.588 80.433L67.11 77.955C68.3106 77.2954 69.474 76.5703 70.595 75.783ZM47 81.02C27.7 81.02 12 67.786 12 51.52 12.0428 45.4491 14.1926 39.5816 18.082 34.92 19.4867 33.1951 20.1034 30.9601 19.782 28.759 20.157 28.893 20.55 29.02 20.95 29.143L21.022 29.165C22.222 29.53 23.514 29.849 24.87 30.127L24.976 30.149C25.876 30.331 26.797 30.496 27.733 30.649L27.852 30.667C28.2927 30.737 28.7357 30.8037 29.181 30.867L29.269 30.88C30.046 30.99 31.432 31.157 32.212 31.242L32.29 31.25C33.205 31.35 34.114 31.435 35.005 31.51L35.224 31.528C35.6007 31.56 35.9743 31.5893 36.345 31.616L36.573 31.633C37.003 31.665 37.4267 31.694 37.844 31.72L37.901 31.72C38.286 31.744 38.662 31.766 39.033 31.786L39.325 31.803C39.663 31.821 39.994 31.8377 40.318 31.853L40.458 31.86C40.827 31.877 41.184 31.892 41.532 31.906L41.764 31.914C42.038 31.925 42.305 31.934 42.564 31.943L42.801 31.951C43.111 31.961 43.411 31.97 43.695 31.977L43.8 31.977C44.055 31.984 44.3 31.989 44.527 31.994L44.727 31.994 45.284 32.004 45.455 32.004 46.043 32.011 46.152 32.011 46.543 32.011 47.457 32.011 47.848 32.011 47.957 32.011 48.545 32.004 48.716 32.004 49.273 31.994 49.473 31.994C49.704 31.994 49.945 31.984 50.2 31.977L50.305 31.977C50.589 31.97 50.889 31.961 51.199 31.951L51.436 31.943C51.695 31.934 51.962 31.925 52.236 31.914L52.468 31.906C52.816 31.892 53.168 31.877 53.542 31.86L53.682 31.853C54.006 31.8377 54.337 31.821 54.675 31.803L54.967 31.786C55.338 31.766 55.714 31.744 56.099 31.72L56.156 31.72C56.5733 31.694 56.997 31.665 57.427 31.633L57.655 31.616C58.025 31.5887 58.3987 31.5593 58.776 31.528L59 31.5C59.891 31.425 60.8 31.339 61.715 31.24L61.825 31.228C62.659 31.137 63.905 30.988 64.736 30.87L64.825 30.857C65.2697 30.795 65.7123 30.7283 66.153 30.657L66.272 30.639C67.208 30.49 68.13 30.325 69.029 30.139L69.135 30.117C70.491 29.839 71.787 29.517 72.983 29.155L73.055 29.133C73.455 29.01 73.848 28.883 74.223 28.749 73.9016 30.9501 74.5183 33.1851 75.923 34.91 79.8127 39.5749 81.9609 45.4463 82 51.52 82 67.786 66.3 81.02 47 81.02Z"/></g></svg>