<svg viewBox="0 0 96 96" xmlns="http://www.w3.org/2000/svg" xmlns:xlink="http://www.w3.org/1999/xlink" id="Icons_TurkeyCooked" overflow="hidden"><path d="M94 76 94 78C94 80.2091 92.2091 82 90 82L6 82C3.79086 82 2 80.2091 2 78L2 76Z"/><path d="M46.12 26.49C47.2898 27.6613 47.2898 29.5587 46.12 30.73 45.3413 31.5134 45.345 32.7797 46.1284 33.5584 46.5035 33.9313 47.0111 34.1404 47.54 34.14 48.0854 34.1539 48.6128 33.9444 49 33.56 51.7338 30.8265 51.734 26.3943 49.0005 23.6605 49.0003 23.6603 49.0002 23.6602 49 23.66L49 23.66C47.8264 22.4905 47.8231 20.591 48.9926 19.4174 48.9951 19.4149 48.9975 19.4125 49 19.41 49.7402 18.5902 49.6757 17.3255 48.8559 16.5852 48.0925 15.896 46.9309 15.8981 46.17 16.59 43.4427 19.3226 43.4427 23.7474 46.17 26.48Z"/><path d="M57.05 32.34C58.2236 33.5095 58.2269 35.409 57.0574 36.5826 57.0549 36.5851 57.0525 36.5875 57.05 36.59 56.2328 37.3331 56.1728 38.598 56.9159 39.4152 57.659 40.2324 58.9239 40.2925 59.7411 39.5494 59.7897 39.5052 59.836 39.4587 59.88 39.41 62.6073 36.6774 62.6073 32.2526 59.88 29.52L59.88 29.52C58.7102 28.3487 58.7102 26.4513 59.88 25.28 60.6615 24.4985 60.6615 23.2315 59.88 22.45 59.0985 21.6685 57.8315 21.6685 57.05 22.45 54.3162 25.1835 54.316 29.6157 57.0495 32.3495 57.0497 32.3497 57.0498 32.3498 57.05 32.35Z"/><path d="M36.12 32.34C37.2936 33.5095 37.2969 35.409 36.1274 36.5826 36.1249 36.5851 36.1225 36.5875 36.12 36.59 35.3413 37.3853 35.3547 38.6613 36.15 39.44 36.9453 40.2187 38.2213 40.2053 39 39.41 41.7338 36.6765 41.734 32.2443 39.0005 29.5105 39.0003 29.5103 39.0002 29.5102 39 29.51L39 29.51C37.8302 28.3387 37.8302 26.4413 39 25.27 39.7815 24.4885 39.7815 23.2215 39 22.44 38.2185 21.6585 36.9515 21.6585 36.17 22.44 33.4362 25.1735 33.436 29.6057 36.1695 32.3395 36.1697 32.3397 36.1698 32.3398 36.17 32.34Z"/><path d="M93.52 49.4C92.6207 48.0084 90.7636 47.6094 89.372 48.5087 89.3714 48.5091 89.3707 48.5096 89.37 48.51 90.765 47.616 91.1711 45.7604 90.2771 44.3655 89.3831 42.9705 87.5275 42.5644 86.1325 43.4584 84.7376 44.3524 84.3315 46.208 85.2255 47.6029 85.227 47.6053 85.2285 47.6076 85.23 47.61 85.417 47.8964 85.6502 48.1498 85.92 48.36L81.54 50.94C79.06 49.06 75.07 48.82 71 50.25 68.1374 51.2329 65.5707 52.9257 63.54 55.17 62.5996 56.2012 61.8299 57.376 61.26 58.65 60.7816 59.6853 60.5261 60.8096 60.51 61.95 60.51 62.7839 59.834 63.46 59 63.46L59 63.46C58.1716 63.46 57.5 62.7884 57.5 61.96 57.5125 60.4031 57.8532 58.8663 58.5 57.45 59.1993 55.8909 60.1372 54.4503 61.28 53.18 63.8176 50.3721 67.0647 48.2995 70.68 47.18L70.98 47.12 75.08 44.71C75.1587 45.0422 75.2904 45.3596 75.47 45.65 76.3704 47.0408 78.2279 47.4384 79.6187 46.538 81.0095 45.6375 81.4071 43.7801 80.5066 42.3893 79.6067 40.9992 77.7508 40.6012 76.36 41.5 77.755 40.606 78.1611 38.7504 77.2671 37.3555 76.3731 35.9605 74.5175 35.5544 73.1225 36.4484 71.7276 37.3424 71.3215 39.198 72.2155 40.5929 72.217 40.5953 72.2185 40.5976 72.22 40.6 72.4071 40.8864 72.6402 41.1398 72.91 41.35L68.53 43.93C65.24 41.44 59.31 41.81 54.06 45.15 53.3412 45.6152 52.6531 46.1263 52 46.68 48.2244 44.5484 43.9658 43.4192 39.63 43.4 25.41 43.4 13.46 55.54 10 72L87 72C85.8809 68.353 84.2657 64.8771 82.2 61.67 83.7203 59.5211 84.2915 56.8422 83.78 54.26L88.09 51.72C88.1687 52.0522 88.3004 52.3696 88.48 52.66 89.2391 54.1327 91.0483 54.7113 92.521 53.9522 93.9938 53.1932 94.5724 51.3839 93.8133 49.9112 93.7199 49.7299 93.6082 49.5586 93.48 49.4Z"/></svg>