<svg viewBox="0 0 96 96" xmlns="http://www.w3.org/2000/svg" xmlns:xlink="http://www.w3.org/1999/xlink" id="Icons_ForkAndKnife_M" overflow="hidden"><g id="Icons"><path d="M29.157 42.376C30.2156 42.3619 31.2732 42.4466 32.316 42.629L33.978 42.962C35.1188 43.19 36.1625 43.7616 36.969 44.6L40.569 48.329 42.022 46.955 38.408 43.21C37.3181 42.0803 35.9099 41.3095 34.371 41L32.709 40.667C31.5416 40.4577 30.3569 40.3599 29.171 40.375 26.061 40.354 22.592 38.83 19.063 35.301 13.863 29.972 8.11 21.726 6.463 19.314 6.19356 18.9168 6.24434 18.3841 6.584 18.045L6.728 17.901C7.1185 17.5106 7.7515 17.5106 8.142 17.901L23.8 33.558C24.2758 34.0338 25.0472 34.0338 25.523 33.558 25.9988 33.0822 25.9988 32.3108 25.523 31.835L9.865 16.18C9.47462 15.7895 9.47462 15.1565 9.865 14.766L10.747 13.883C11.1375 13.4926 11.7705 13.4926 12.161 13.883L27.817 29.539C28.2928 30.0148 29.0642 30.0148 29.54 29.539 30.0158 29.0632 30.0158 28.2918 29.54 27.816L13.884 12.161C13.4936 11.7705 13.4936 11.1375 13.884 10.747L14.766 9.864C15.1565 9.47362 15.7895 9.47362 16.18 9.864L31.836 25.52C32.291 26.0154 33.0615 26.0482 33.557 25.5932 34.0524 25.1381 34.0851 24.3676 33.6301 23.8722 33.6071 23.8471 33.583 23.823 33.558 23.8L17.9 8.142C17.5096 7.7515 17.5096 7.1185 17.9 6.728L18.05 6.577C18.2377 6.38921 18.4925 6.28379 18.758 6.284 18.9557 6.28371 19.149 6.34256 19.313 6.453 24.9727 10.2119 30.2929 14.4584 35.213 19.144 38.758 22.689 40.28 26.174 40.288 29.294 40.2667 30.5044 40.348 31.7144 40.531 32.911L40.92 35.151C41.1195 36.2961 41.6802 37.3474 42.52 38.151L46.82 42.266 48.235 40.852 43.905 36.706C43.3727 36.1977 43.0182 35.5315 42.894 34.806L42.506 32.565C42.342 31.4797 42.2705 30.3824 42.292 29.285 42.282 25.416 40.325 21.419 36.632 17.726 31.6174 12.9513 26.1959 8.62327 20.429 4.791 19.2388 3.99448 17.6516 4.15027 16.639 5.163L16.49 5.312C15.8921 5.90906 15.5743 6.73099 15.615 7.575 15.568 7.575 15.521 7.575 15.473 7.575 14.6769 7.57273 13.9131 7.88929 13.352 8.454L12.47 9.337C11.9051 9.89797 11.5885 10.6619 11.591 11.458 11.591 11.504 11.591 11.551 11.591 11.598 11.545 11.598 11.498 11.598 11.451 11.598 10.6549 11.5957 9.8911 11.9123 9.33 12.477L8.448 13.36C7.8502 13.9563 7.53268 14.7777 7.574 15.621 7.527 15.621 7.48 15.621 7.432 15.621 6.63593 15.6187 5.8721 15.9353 5.311 16.5L5.168 16.642C4.14729 17.6609 3.99609 19.262 4.808 20.454 6.475 22.88 12.318 31.257 17.632 36.7 21.325 40.393 25.305 42.35 29.157 42.376Z"/><path d="M63.315 55.288 61.983 56.782 86.06 79.834C87.8344 81.5209 87.9052 84.3268 86.2183 86.1012 84.5314 87.8756 81.7255 87.9465 79.9511 86.2595 79.9013 86.2122 79.8526 86.1636 79.805 86.114L53.815 59.178C53.39 59.068 52.953 58.942 52.489 58.778L51.589 59.748 78.366 87.5C80.8337 90.0553 84.9056 90.1263 87.4608 87.6586 90.0161 85.1909 90.0871 81.119 87.6194 78.5638 87.5618 78.504 87.5029 78.4454 87.443 78.388Z"/><path d="M90.857 10.7C89.9723 9.50728 88.5847 8.79192 87.1 8.763L87 8.763C85.4334 8.76465 83.9325 9.39301 82.832 10.508L46.232 47.108 10.352 81.032C7.79326 83.4521 7.68086 87.4882 10.1009 90.0469 11.305 91.32 12.9798 92.0415 14.732 92.042 16.5056 92.0384 18.1983 91.2989 19.406 90L51.69 55.231C53.1695 55.9783 54.782 56.4259 56.435 56.548 57.4416 56.5969 58.4205 56.2095 59.121 55.485L81.43 30.441C87.253 23.905 90.708 18.724 91.701 15.041 92.0982 13.5411 91.7873 11.9418 90.857 10.7ZM89.77 14.52C89.12 16.933 86.843 21.358 79.936 29.111L57.652 54.128C57.3234 54.4329 56.8817 54.5853 56.435 54.548 54.8 54.548 52.314 53.323 51.211 52.808L17.94 88.643C16.2886 90.4076 13.5194 90.4995 11.7548 88.8481 9.99016 87.1968 9.89833 84.4276 11.5497 82.6629 11.6067 82.6019 11.6655 82.5426 11.726 82.485L47.619 48.541 84.239 11.921C84.9652 11.1827 85.9564 10.7654 86.992 10.762L87.06 10.762C88.694 10.8405 89.955 12.2287 89.8765 13.8627 89.8658 14.0851 89.8301 14.3056 89.77 14.52Z"/></g></svg>