<svg viewBox="0 0 96 96" xmlns="http://www.w3.org/2000/svg" xmlns:xlink="http://www.w3.org/1999/xlink" id="Icons_Chef" overflow="hidden"><path d="M35 57.5C35 56.6716 35.6716 56 36.5 56L48 56C54.24 56 59 53.82 59.86 51.65 55.9901 50.6116 52.0064 50.0574 48 50 43.5258 50.0165 39.0783 50.6903 34.8 52 29.2 53.6 23.6 56 19.2 59.6 17.227 61.1451 16.0522 63.4946 16 66L16 82 35 82Z"/><path d="M32.05 29C32.05 29.33 32.05 29.66 32.05 30 32.05 38.8366 39.2134 46 48.05 46 56.8866 46 64.05 38.8366 64.05 30 64.05 29.66 64.05 29.33 64.05 29Z"/><path d="M76.8 59.6C72.5248 56.5272 67.8031 54.1293 62.8 52.49 61.61 56.17 55.99 58.83 48.72 58.98L48.55 58.98 38 58.98 38 82 80 82 80 66C79.9478 63.4946 78.773 61.1451 76.8 59.6ZM44.25 76.75C43.1454 76.75 42.25 75.8546 42.25 74.75 42.25 73.6454 43.1454 72.75 44.25 72.75 45.3546 72.75 46.25 73.6454 46.25 74.75 46.25 75.8546 45.3546 76.75 44.25 76.75ZM44.25 68.75C43.1454 68.75 42.25 67.8546 42.25 66.75 42.25 65.6454 43.1454 64.75 44.25 64.75 45.3546 64.75 46.25 65.6454 46.25 66.75 46.25 67.8546 45.3546 68.75 44.25 68.75ZM52.25 76.75C51.1454 76.75 50.25 75.8546 50.25 74.75 50.25 73.6454 51.1454 72.75 52.25 72.75 53.3546 72.75 54.25 73.6454 54.25 74.75 54.25 75.8546 53.3546 76.75 52.25 76.75ZM52.25 68.75C51.1454 68.75 50.25 67.8546 50.25 66.75 50.25 65.6454 51.1454 64.75 52.25 64.75 53.3546 64.75 54.25 65.6454 54.25 66.75 54.25 67.8546 53.3546 68.75 52.25 68.75Z"/><path d="M68 14.38C68.0078 10.1771 64.6069 6.76373 60.404 6.75598 58.6242 6.7527 56.8996 7.37335 55.53 8.51 54.9222 4.3513 51.0582 1.47273 46.8995 2.08055 43.5708 2.56704 40.9565 5.18134 40.47 8.51 37.228 5.8267 32.4246 6.27961 29.7413 9.52162 27.058 12.7636 27.5109 17.567 30.7529 20.2503 31.1399 20.5707 31.5576 20.8519 32 21.09L32 26 64 26 64 21.09C66.464 19.7572 67.9996 17.1814 68 14.38Z"/></svg>