<svg viewBox="0 0 96 96" xmlns="http://www.w3.org/2000/svg" xmlns:xlink="http://www.w3.org/1999/xlink" id="Icons_Coffee" overflow="hidden"><path d="M79.2 59.2C79.2 51 72.8 44.4 64.7 44L64.7 38 16.7 38 16.7 84C16.7 86.2 18.5 88 20.7 88L60.7 88C62.9 88 64.7 86.2 64.7 84L64.7 74.5C72.8 74.1 79.2 67.4 79.2 59.2ZM64.8 68.5 64.8 50C69.6 50.4 73.3 54.4 73.3 59.2 73.3 64 69.5 68.1 64.8 68.5Z"/><path d="M38.9 18.5C39.5 19.1 39.8 19.8 39.8 20.6 39.8 21.4 39.5 22.2 38.9 22.7 38.1 23.5 38.1 24.7 38.9 25.5 39.3 25.9 39.8 26.1 40.3 26.1 40.8 26.1 41.3 25.9 41.7 25.5 43 24.2 43.8 22.4 43.8 20.5 43.8 18.6 43.1 16.9 41.7 15.6 41.7 15.6 41.7 15.6 41.7 15.6 40.5 14.4 40.5 12.5 41.7 11.4 42.5 10.6 42.5 9.4 41.7 8.6 40.9 7.8 39.7 7.8 38.9 8.6 36.1 11.3 36.1 15.8 38.9 18.5 38.9 18.5 38.9 18.5 38.9 18.5Z"/><path d="M49.8 24.3C51 25.5 51 27.4 49.8 28.5 49 29.3 49 30.5 49.8 31.3 50.2 31.7 50.7 31.9 51.2 31.9 51.7 31.9 52.2 31.7 52.6 31.3 55.3 28.6 55.3 24.1 52.6 21.4 52.6 21.4 52.6 21.4 52.6 21.4 52 20.8 51.7 20.1 51.7 19.3 51.7 18.5 52 17.7 52.6 17.2 53.4 16.4 53.4 15.2 52.6 14.4 51.8 13.6 50.6 13.6 49.8 14.4 48.5 15.7 47.7 17.5 47.7 19.4 47.8 21.3 48.5 23 49.8 24.3 49.8 24.3 49.8 24.3 49.8 24.3Z"/><path d="M28.9 24.3C29.5 24.9 29.8 25.6 29.8 26.4 29.8 27.2 29.5 28 28.9 28.5 28.1 29.3 28.1 30.5 28.9 31.3 29.3 31.7 29.8 31.9 30.3 31.9 30.8 31.9 31.3 31.7 31.7 31.3 33 30 33.8 28.2 33.8 26.3 33.8 24.4 33.1 22.7 31.7 21.3L31.7 21.3C30.5 20.1 30.5 18.2 31.7 17.1 32.5 16.3 32.5 15.1 31.7 14.3 30.9 13.5 29.7 13.5 28.9 14.3 26.1 17.2 26.1 21.6 28.9 24.3 28.9 24.3 28.9 24.3 28.9 24.3Z"/></svg>