<svg viewBox="0 0 96 96" xmlns="http://www.w3.org/2000/svg" xmlns:xlink="http://www.w3.org/1999/xlink" id="Icons_TableSetting" overflow="hidden"><path d="M87.72 29.72C84.72 29.72 82.32 35.17 82.32 39.72 82.32 42.49 83.22 44.32 84.59 45.3 85.3159 45.7561 85.8414 46.471 86.06 47.3L85.43 68.69C85.5141 69.9685 86.6187 70.9368 87.8972 70.8528 89.0586 70.7764 89.9836 69.8514 90.06 68.69L89.43 47.3C89.6511 46.4694 90.1803 45.7542 90.91 45.3 92.27 44.3 93.17 42.49 93.17 39.72 93.11 35.17 90.71 29.72 87.72 29.72Z"/><path d="M14.24 29.72 13.24 29.72 13.24 40.72C13.24 41.0403 12.9803 41.3 12.66 41.3 12.3397 41.3 12.08 41.0403 12.08 40.72L12.08 29.72 10.57 29.72 10.57 40.72C10.57 41.0403 10.3103 41.3 9.99 41.3 9.66967 41.3 9.41 41.0403 9.41 40.72L9.41 29.72 7.87 29.72 7.87 40.72C7.87 41.0403 7.61032 41.3 7.29 41.3 6.96967 41.3 6.71 41.0403 6.71 40.72L6.71 29.72 5.71 29.72C5.02707 33.0123 4.63887 36.3588 4.55 39.72 4.55 42.5 5.45 44.33 6.81 45.31 7.53762 45.7665 8.06616 46.4807 8.29 47.31L7.7 68.68C7.7 69.9613 8.7387 71 10.02 71 11.3013 71 12.34 69.9613 12.34 68.68L11.71 47.27C11.9314 46.4423 12.4562 45.7283 13.18 45.27 14.55 44.27 15.45 42.46 15.45 39.68 15.2944 36.3346 14.89 33.0054 14.24 29.72Z"/><path d="M79.59 48.91 79.59 25.76C79.6066 24.8047 78.8456 24.0168 77.8903 24.0002 77.8769 24 77.8634 23.9999 77.85 24 77.85 24 74.85 24.11 74.36 32.54L73.5 47.51C73.5 48.27 75.28 48.88 75.95 49.13L75.07 68.4C75.159 69.8332 76.393 70.9228 77.8262 70.8338 79.1352 70.7525 80.1787 69.709 80.26 68.4Z"/><path d="M44 20C29.0883 20 17 32.0883 17 47 17 61.9117 29.0883 74 44 74 58.9117 74 71 61.9117 71 47 71 32.0883 58.9117 20 44 20ZM44 68C32.402 68 23 58.598 23 47 23 35.402 32.402 26 44 26 55.598 26 65 35.402 65 47 65 58.598 55.598 68 44 68Z"/><circle cx="44" cy="47" r="18"/></svg>