<svg viewBox="0 0 96 96" xmlns="http://www.w3.org/2000/svg" xmlns:xlink="http://www.w3.org/1999/xlink" id="Icons_Clock_M" overflow="hidden"><g id="Icons"><path d="M48 86C27.0132 86 10 68.9868 10 48 10 27.0132 27.0132 10 48 10 68.9868 10 86 27.0132 86 48 85.9763 68.977 68.977 85.9763 48 86ZM48 12C28.1177 12 12 28.1177 12 48 12 67.8822 28.1177 84 48 84 67.8822 84 84 67.8822 84 48 83.978 28.1269 67.8731 12.022 48 12Z"/><path d="M61.293 62.707 47.293 48.707C47.1054 48.5195 47.0001 48.2652 47 48L47 29 49 29 49 47.586 62.707 61.293Z"/><circle cx="48" cy="23" r="2"/><circle cx="23" cy="48" r="2"/><circle cx="48" cy="73" r="2"/><circle cx="73" cy="48" r="2"/><path d="M48 81C29.7746 81 15 66.2254 15 48 15 29.7746 29.7746 15 48 15 66.2254 15 81 29.7746 81 48 80.9791 66.2167 66.2167 80.9791 48 81ZM48 17C30.8792 17 17 30.8792 17 48 17 65.1208 30.8792 79 48 79 65.1208 79 79 65.1208 79 48 78.9802 30.8874 65.1126 17.0198 48 17Z"/></g></svg>