<svg viewBox="0 0 96 96" xmlns="http://www.w3.org/2000/svg" xmlns:xlink="http://www.w3.org/1999/xlink" id="Icons_Clock" overflow="hidden"><path d="M48 80C30.4 80 16 65.6 16 48 16 30.4 30.4 16 48 16 65.6 16 80 30.4 80 48 80 65.6 65.6 80 48 80ZM48 10C27 10 10 27 10 48 10 69 27 86 48 86 69 86 86 69 86 48 86 27 69 10 48 10Z"/><path d="M50 28 46 28 46 48C46 48.6 46.2 49.1 46.6 49.4L60.7 63.5 63.5 60.7 50 47.2 50 28Z"/><circle cx="48" cy="22" r="2"/><circle cx="48" cy="74" r="2"/><circle cx="22" cy="48" r="2"/><circle cx="74" cy="48" r="2"/></svg>